<?xml version="1.0" encoding="UTF-8" standalone="no"?>
<svg
   xmlns:dc="http://purl.org/dc/elements/1.1/"
   xmlns:cc="http://creativecommons.org/ns#"
   xmlns:rdf="http://www.w3.org/1999/02/22-rdf-syntax-ns#"
   xmlns:svg="http://www.w3.org/2000/svg"
   xmlns="http://www.w3.org/2000/svg"
   xmlns:xlink="http://www.w3.org/1999/xlink"
   xmlns:sodipodi="http://sodipodi.sourceforge.net/DTD/sodipodi-0.dtd"
   xmlns:inkscape="http://www.inkscape.org/namespaces/inkscape"
   width="25"
   height="25"
   viewBox="0 0 25 25"
   version="1.1"
   id="svg14"
   sodipodi:docname="icon-phone.svg"
   inkscape:version="0.92.3 (2405546, 2018-03-11)">
  <metadata
     id="metadata18">
    <rdf:RDF>
      <cc:Work
         rdf:about="">
        <dc:format>image/svg+xml</dc:format>
        <dc:type
           rdf:resource="http://purl.org/dc/dcmitype/StillImage" />
      </cc:Work>
    </rdf:RDF>
  </metadata>
  <sodipodi:namedview
     pagecolor="#ffffff"
     bordercolor="#666666"
     borderopacity="1"
     objecttolerance="10"
     gridtolerance="10"
     guidetolerance="10"
     inkscape:pageopacity="0"
     inkscape:pageshadow="2"
     inkscape:window-width="732"
     inkscape:window-height="480"
     id="namedview16"
     showgrid="false"
     inkscape:zoom="9.44"
     inkscape:cx="12.5"
     inkscape:cy="12.5"
     inkscape:window-x="0"
     inkscape:window-y="0"
     inkscape:window-maximized="0"
     inkscape:current-layer="svg14" />
  <title
     id="title2">noun_555068_cc</title>
  <desc
     id="desc4">Created using Figma</desc>
  <g
     id="Canvas"
     transform="translate(-4909 -2651)"
     style="fill:#e20000;fill-opacity:1">
    <g
       id="noun_555068_cc"
       style="fill:#e20000;fill-opacity:1">
      <g
         id="Vector"
         style="fill:#e20000;fill-opacity:1">
        <use
           xlink:href="#path0_fill"
           transform="translate(4909 2651)"
           fill="#219653"
           id="use6"
           style="fill:#e20000;fill-opacity:1" />
      </g>
    </g>
  </g>
  <defs
     id="defs12">
    <path
       id="path0_fill"
       d="M 12.5 25C 5.59625 25 0 19.4037 0 12.5C 0 5.59625 5.59625 0 12.5 0C 19.4037 0 25 5.59625 25 12.5C 25 19.4037 19.4037 25 12.5 25ZM 15.1038 14.0625C 14.425 14.6088 13.8925 15.31 13.5538 16.1125C 11.4525 15.1875 9.8125 13.5475 8.8775 11.5175C 9.69 11.1075 10.39 10.575 10.9288 9.90625C 10.7913 8.39125 10.01 7.09375 8.8675 6.26C 7.34375 6.81125 6.2825 8.22625 6.24875 9.8925C 6.36375 14.6437 10.1063 18.4825 14.8038 18.7488C 16.575 18.7275 18.07 17.675 18.7375 16.1737C 17.905 14.99 16.6075 14.2088 15.1225 14.0638L 15.1038 14.0625Z" />
  </defs>
</svg>
